<svg width="302" height="89" viewBox="0 0 302 89" fill="none" xmlns="http://www.w3.org/2000/svg">
<path fill-rule="evenodd" clip-rule="evenodd" d="M40.3492 0.761204C42.7995 -0.253735 45.5526 -0.253734 48.0029 0.761205L72.1691 10.7711C74.6193 11.7861 76.5661 13.7328 77.581 16.1831L87.591 40.3492C88.6059 42.7995 88.6059 45.5526 87.591 48.0029L77.581 72.1691C76.5661 74.6193 74.6193 76.5661 72.1691 77.581L48.0029 87.591C45.5526 88.6059 42.7995 88.6059 40.3492 87.5909L16.1831 77.581C13.7328 76.5661 11.7861 74.6193 10.7711 72.1691L0.761205 48.0029C-0.253735 45.5526 -0.253735 42.7995 0.761205 40.3492L10.7711 16.1831C11.7861 13.7328 13.7328 11.7861 16.1831 10.7711L40.3492 0.761204ZM55.7591 62.1711L47.5029 65.5909C45.0526 66.6059 42.2995 66.6059 39.8492 65.5909L31.593 62.1711C29.1427 61.1562 27.196 59.2094 26.181 56.7591L22.7612 48.5029C21.7463 46.0526 21.7463 43.2995 22.7612 40.8492L26.181 32.593C27.196 30.1427 29.1427 28.196 31.593 27.181L39.8492 23.7612C42.2995 22.7463 45.0526 22.7463 47.5029 23.7612L55.7591 27.181C58.2094 28.196 60.1562 30.1427 61.1711 32.593L64.591 40.8492C65.6059 43.2995 65.6059 46.0526 64.5909 48.5029L61.1711 56.7591C60.1562 59.2094 58.2094 61.1562 55.7591 62.1711ZM43.6761 58.1761C51.1319 58.1761 57.1761 52.1319 57.1761 44.6761C57.1761 37.2202 51.1319 31.1761 43.6761 31.1761C36.2202 31.1761 30.1761 37.2202 30.1761 44.6761C30.1761 52.1319 36.2202 58.1761 43.6761 58.1761Z" fill="#004642"/>
<path d="M110.448 49.2441C110.448 47.0361 110.768 45.1161 111.408 43.4841C112.048 41.8201 112.896 40.4441 113.952 39.3561C115.008 38.2681 116.224 37.4521 117.6 36.9081C118.976 36.3641 120.384 36.0921 121.824 36.0921C125.184 36.0921 127.76 37.1481 129.552 39.2601C131.344 41.3401 132.24 44.5241 132.24 48.8121C132.24 49.0041 132.24 49.2601 132.24 49.5801C132.24 49.8681 132.224 50.1401 132.192 50.3961H115.104C115.296 52.9881 116.048 54.9561 117.36 56.3001C118.672 57.6441 120.72 58.3161 123.504 58.3161C125.072 58.3161 126.384 58.1881 127.44 57.9321C128.528 57.6441 129.344 57.3721 129.888 57.1161L130.512 60.8601C129.968 61.1481 129.008 61.4521 127.632 61.7721C126.288 62.0921 124.752 62.2521 123.024 62.2521C120.848 62.2521 118.96 61.9321 117.36 61.2921C115.792 60.6201 114.496 59.7081 113.472 58.5561C112.448 57.4041 111.68 56.0441 111.168 54.4761C110.688 52.8761 110.448 51.1321 110.448 49.2441ZM127.584 46.7961C127.616 44.7801 127.104 43.1321 126.048 41.8521C125.024 40.5401 123.6 39.8841 121.776 39.8841C120.752 39.8841 119.84 40.0921 119.04 40.5081C118.272 40.8921 117.616 41.4041 117.072 42.0441C116.528 42.6841 116.096 43.4201 115.776 44.2521C115.488 45.0841 115.296 45.9321 115.2 46.7961H127.584ZM147.773 28.0761C152.445 28.0761 156.029 28.9721 158.525 30.7641C161.053 32.5241 162.317 35.1641 162.317 38.6841C162.317 40.6041 161.965 42.2521 161.26 43.6281C160.589 44.9721 159.597 46.0761 158.285 46.9401C157.005 47.7721 155.437 48.3801 153.581 48.7641C151.725 49.1481 149.629 49.3401 147.293 49.3401H143.597V61.6761H138.941V28.8921C140.253 28.5721 141.709 28.3641 143.309 28.2681C144.941 28.1401 146.429 28.0761 147.773 28.0761ZM148.157 32.1561C146.173 32.1561 144.653 32.2041 143.597 32.3001V45.3561H147.101C148.701 45.3561 150.141 45.2601 151.421 45.0681C152.701 44.8441 153.773 44.4921 154.637 44.0121C155.533 43.5001 156.221 42.8121 156.701 41.9481C157.181 41.0841 157.421 39.9801 157.421 38.6361C157.421 37.3561 157.165 36.3001 156.653 35.4681C156.173 34.6361 155.501 33.9801 154.637 33.5001C153.805 32.9881 152.829 32.6361 151.709 32.4441C150.589 32.2521 149.405 32.1561 148.157 32.1561ZM177.072 36.1881C177.456 36.1881 177.888 36.2201 178.368 36.2841C178.88 36.3161 179.376 36.3801 179.856 36.4761C180.336 36.5401 180.768 36.6201 181.152 36.7161C181.568 36.7801 181.872 36.8441 182.064 36.9081L181.296 40.7961C180.944 40.6681 180.352 40.5241 179.52 40.3641C178.72 40.1721 177.68 40.0761 176.4 40.0761C175.568 40.0761 174.736 40.1721 173.904 40.3641C173.104 40.5241 172.576 40.6361 172.32 40.7001V61.6761H167.856V37.7721C168.912 37.3881 170.224 37.0361 171.792 36.7161C173.36 36.3641 175.12 36.1881 177.072 36.1881ZM208.403 49.1961C208.403 51.1801 208.115 52.9721 207.539 54.5721C206.963 56.1721 206.147 57.5481 205.091 58.7001C204.067 59.8521 202.835 60.7481 201.395 61.3881C199.955 61.9961 198.387 62.3001 196.691 62.3001C194.995 62.3001 193.427 61.9961 191.987 61.3881C190.547 60.7481 189.299 59.8521 188.243 58.7001C187.219 57.5481 186.419 56.1721 185.843 54.5721C185.267 52.9721 184.979 51.1801 184.979 49.1961C184.979 47.2441 185.267 45.4681 185.843 43.8681C186.419 42.2361 187.219 40.8441 188.243 39.6921C189.299 38.5401 190.547 37.6601 191.987 37.0521C193.427 36.4121 194.995 36.0921 196.691 36.0921C198.387 36.0921 199.955 36.4121 201.395 37.0521C202.835 37.6601 204.067 38.5401 205.091 39.6921C206.147 40.8441 206.963 42.2361 207.539 43.8681C208.115 45.4681 208.403 47.2441 208.403 49.1961ZM203.747 49.1961C203.747 46.3801 203.107 44.1561 201.827 42.5241C200.579 40.8601 198.867 40.0281 196.691 40.0281C194.515 40.0281 192.787 40.8601 191.507 42.5241C190.259 44.1561 189.635 46.3801 189.635 49.1961C189.635 52.0121 190.259 54.2521 191.507 55.9161C192.787 57.5481 194.515 58.3641 196.691 58.3641C198.867 58.3641 200.579 57.5481 201.827 55.9161C203.107 54.2521 203.747 52.0121 203.747 49.1961ZM219.964 59.0841C219.964 59.9481 219.676 60.7001 219.1 61.3401C218.524 61.9801 217.74 62.3001 216.748 62.3001C215.756 62.3001 214.972 61.9801 214.396 61.3401C213.82 60.7001 213.532 59.9481 213.532 59.0841C213.532 58.2201 213.82 57.4681 214.396 56.8281C214.972 56.1881 215.756 55.8681 216.748 55.8681C217.74 55.8681 218.524 56.1881 219.1 56.8281C219.676 57.4681 219.964 58.2201 219.964 59.0841ZM242.624 41.9961C242.08 41.5481 241.296 41.1161 240.272 40.7001C239.248 40.2841 238.128 40.0761 236.912 40.0761C235.632 40.0761 234.528 40.3161 233.6 40.7961C232.704 41.2441 231.968 41.8841 231.392 42.7161C230.816 43.5161 230.4 44.4761 230.144 45.5961C229.888 46.7161 229.76 47.9161 229.76 49.1961C229.76 52.1081 230.48 54.3641 231.92 55.9641C233.36 57.5321 235.28 58.3161 237.68 58.3161C238.896 58.3161 239.904 58.2681 240.704 58.1721C241.536 58.0441 242.176 57.9161 242.624 57.7881V41.9961ZM242.624 25.1961L247.088 24.4281V60.9561C246.064 61.2441 244.752 61.5321 243.152 61.8201C241.552 62.1081 239.712 62.2521 237.632 62.2521C235.712 62.2521 233.984 61.9481 232.448 61.3401C230.912 60.7321 229.6 59.8681 228.512 58.7481C227.424 57.6281 226.576 56.2681 225.968 54.6681C225.392 53.0361 225.104 51.2121 225.104 49.1961C225.104 47.2761 225.344 45.5161 225.824 43.9161C226.336 42.3161 227.072 40.9401 228.032 39.7881C228.992 38.6361 230.16 37.7401 231.536 37.1001C232.944 36.4601 234.544 36.1401 236.336 36.1401C237.776 36.1401 239.04 36.3321 240.128 36.7161C241.248 37.1001 242.08 37.4681 242.624 37.8201V25.1961ZM253.37 49.2441C253.37 47.0361 253.69 45.1161 254.33 43.4841C254.97 41.8201 255.818 40.4441 256.874 39.3561C257.93 38.2681 259.146 37.4521 260.522 36.9081C261.898 36.3641 263.306 36.0921 264.746 36.0921C268.106 36.0921 270.682 37.1481 272.474 39.2601C274.266 41.3401 275.162 44.5241 275.162 48.8121C275.162 49.0041 275.162 49.2601 275.162 49.5801C275.162 49.8681 275.146 50.1401 275.114 50.3961H258.026C258.218 52.9881 258.97 54.9561 260.282 56.3001C261.594 57.6441 263.642 58.3161 266.426 58.3161C267.994 58.3161 269.306 58.1881 270.362 57.9321C271.45 57.6441 272.266 57.3721 272.81 57.1161L273.434 60.8601C272.89 61.1481 271.93 61.4521 270.554 61.7721C269.21 62.0921 267.674 62.2521 265.946 62.2521C263.77 62.2521 261.882 61.9321 260.282 61.2921C258.714 60.6201 257.418 59.7081 256.394 58.5561C255.37 57.4041 254.602 56.0441 254.09 54.4761C253.61 52.8761 253.37 51.1321 253.37 49.2441ZM270.506 46.7961C270.538 44.7801 270.026 43.1321 268.97 41.8521C267.946 40.5401 266.522 39.8841 264.698 39.8841C263.674 39.8841 262.762 40.0921 261.962 40.5081C261.194 40.8921 260.538 41.4041 259.994 42.0441C259.45 42.6841 259.018 43.4201 258.698 44.2521C258.41 45.0841 258.218 45.9321 258.122 46.7961H270.506ZM301.062 36.7161C299.814 41.3881 298.342 45.8681 296.646 50.1561C294.982 54.4441 293.366 58.2841 291.798 61.6761H287.766C286.198 58.2841 284.566 54.4441 282.87 50.1561C281.206 45.8681 279.75 41.3881 278.502 36.7161H283.302C283.686 38.2841 284.134 39.9641 284.646 41.7561C285.19 43.5161 285.75 45.2761 286.326 47.0361C286.934 48.7641 287.542 50.4441 288.15 52.0761C288.758 53.7081 289.334 55.1641 289.878 56.4441C290.422 55.1641 290.998 53.7081 291.606 52.0761C292.214 50.4441 292.806 48.7641 293.382 47.0361C293.99 45.2761 294.55 43.5161 295.062 41.7561C295.606 39.9641 296.07 38.2841 296.454 36.7161H301.062Z" fill="black"/>
</svg>
