<svg width="470" height="110" viewBox="0 0 470 110" fill="none" xmlns="http://www.w3.org/2000/svg">
<path fill-rule="evenodd" clip-rule="evenodd" d="M47.3492 11.7612C49.7995 10.7463 52.5526 10.7463 55.0029 11.7612L79.1691 21.7711C81.6193 22.7861 83.5661 24.7328 84.581 27.1831L94.591 51.3492C95.6059 53.7995 95.6059 56.5526 94.591 59.0029L84.581 83.1691C83.5661 85.6193 81.6193 87.5661 79.1691 88.581L55.0029 98.591C52.5526 99.6059 49.7995 99.6059 47.3492 98.591L23.1831 88.581C20.7328 87.5661 18.7861 85.6193 17.7711 83.1691L7.7612 59.0029C6.74627 56.5526 6.74627 53.7995 7.7612 51.3492L17.7711 27.1831C18.7861 24.7328 20.7328 22.7861 23.1831 21.7711L47.3492 11.7612ZM62.7591 73.1711L54.5029 76.5909C52.0526 77.6059 49.2995 77.6059 46.8492 76.5909L38.593 73.1711C36.1427 72.1562 34.196 70.2094 33.181 67.7591L29.7612 59.5029C28.7463 57.0526 28.7463 54.2995 29.7612 51.8492L33.181 43.593C34.196 41.1427 36.1427 39.196 38.593 38.181L46.8492 34.7612C49.2995 33.7463 52.0526 33.7463 54.5029 34.7612L62.7591 38.181C65.2094 39.196 67.1562 41.1427 68.1711 43.593L71.591 51.8492C72.6059 54.2995 72.6059 57.0526 71.5909 59.5029L68.1711 67.7591C67.1562 70.2094 65.2094 72.1562 62.7591 73.1711ZM50.6761 69.1761C58.1319 69.1761 64.1761 63.1319 64.1761 55.6761C64.1761 48.2202 58.1319 42.1761 50.6761 42.1761C43.2202 42.1761 37.1761 48.2202 37.1761 55.6761C37.1761 63.1319 43.2202 69.1761 50.6761 69.1761Z" fill="#004642"/>
<path d="M117.448 60.2441C117.448 58.0361 117.768 56.1161 118.408 54.4841C119.048 52.8201 119.896 51.4441 120.952 50.3561C122.008 49.2681 123.224 48.4521 124.6 47.9081C125.976 47.3641 127.384 47.0921 128.824 47.0921C132.184 47.0921 134.76 48.1481 136.552 50.2601C138.344 52.3401 139.24 55.5241 139.24 59.8121C139.24 60.0041 139.24 60.2601 139.24 60.5801C139.24 60.8681 139.224 61.1401 139.192 61.3961H122.104C122.296 63.9881 123.048 65.9561 124.36 67.3001C125.672 68.6441 127.72 69.3161 130.504 69.3161C132.072 69.3161 133.384 69.1881 134.44 68.9321C135.528 68.6441 136.344 68.3721 136.888 68.1161L137.512 71.8601C136.968 72.1481 136.008 72.4521 134.632 72.7721C133.288 73.0921 131.752 73.2521 130.024 73.2521C127.848 73.2521 125.96 72.9321 124.36 72.2921C122.792 71.6201 121.496 70.7081 120.472 69.5561C119.448 68.4041 118.68 67.0441 118.168 65.4761C117.688 63.8761 117.448 62.1321 117.448 60.2441ZM134.584 57.7961C134.616 55.7801 134.104 54.1321 133.048 52.8521C132.024 51.5401 130.6 50.8841 128.776 50.8841C127.752 50.8841 126.84 51.0921 126.04 51.5081C125.272 51.8921 124.616 52.4041 124.072 53.0441C123.528 53.6841 123.096 54.4201 122.776 55.2521C122.488 56.0841 122.296 56.9321 122.2 57.7961H134.584ZM154.773 39.0761C159.445 39.0761 163.029 39.9721 165.525 41.7641C168.053 43.5241 169.317 46.1641 169.317 49.6841C169.317 51.6041 168.965 53.2521 168.26 54.6281C167.589 55.9721 166.597 57.0761 165.285 57.9401C164.005 58.7721 162.437 59.3801 160.581 59.7641C158.725 60.1481 156.629 60.3401 154.293 60.3401H150.597V72.6761H145.941V39.8921C147.253 39.5721 148.709 39.3641 150.309 39.2681C151.941 39.1401 153.429 39.0761 154.773 39.0761ZM155.157 43.1561C153.173 43.1561 151.653 43.2041 150.597 43.3001V56.3561H154.101C155.701 56.3561 157.141 56.2601 158.421 56.0681C159.701 55.8441 160.773 55.4921 161.637 55.0121C162.533 54.5001 163.221 53.8121 163.701 52.9481C164.181 52.0841 164.421 50.9801 164.421 49.6361C164.421 48.3561 164.165 47.3001 163.653 46.4681C163.173 45.6361 162.501 44.9801 161.637 44.5001C160.805 43.9881 159.829 43.6361 158.709 43.4441C157.589 43.2521 156.405 43.1561 155.157 43.1561ZM184.072 47.1881C184.456 47.1881 184.888 47.2201 185.368 47.2841C185.88 47.3161 186.376 47.3801 186.856 47.4761C187.336 47.5401 187.768 47.6201 188.152 47.7161C188.568 47.7801 188.872 47.8441 189.064 47.9081L188.296 51.7961C187.944 51.6681 187.352 51.5241 186.52 51.3641C185.72 51.1721 184.68 51.0761 183.4 51.0761C182.568 51.0761 181.736 51.1721 180.904 51.3641C180.104 51.5241 179.576 51.6361 179.32 51.7001V72.6761H174.856V48.7721C175.912 48.3881 177.224 48.0361 178.792 47.7161C180.36 47.3641 182.12 47.1881 184.072 47.1881ZM215.403 60.1961C215.403 62.1801 215.115 63.9721 214.539 65.5721C213.963 67.1721 213.147 68.5481 212.091 69.7001C211.067 70.8521 209.835 71.7481 208.395 72.3881C206.955 72.9961 205.387 73.3001 203.691 73.3001C201.995 73.3001 200.427 72.9961 198.987 72.3881C197.547 71.7481 196.299 70.8521 195.243 69.7001C194.219 68.5481 193.419 67.1721 192.843 65.5721C192.267 63.9721 191.979 62.1801 191.979 60.1961C191.979 58.2441 192.267 56.4681 192.843 54.8681C193.419 53.2361 194.219 51.8441 195.243 50.6921C196.299 49.5401 197.547 48.6601 198.987 48.0521C200.427 47.4121 201.995 47.0921 203.691 47.0921C205.387 47.0921 206.955 47.4121 208.395 48.0521C209.835 48.6601 211.067 49.5401 212.091 50.6921C213.147 51.8441 213.963 53.2361 214.539 54.8681C215.115 56.4681 215.403 58.2441 215.403 60.1961ZM210.747 60.1961C210.747 57.3801 210.107 55.1561 208.827 53.5241C207.579 51.8601 205.867 51.0281 203.691 51.0281C201.515 51.0281 199.787 51.8601 198.507 53.5241C197.259 55.1561 196.635 57.3801 196.635 60.1961C196.635 63.0121 197.259 65.2521 198.507 66.9161C199.787 68.5481 201.515 69.3641 203.691 69.3641C205.867 69.3641 207.579 68.5481 208.827 66.9161C210.107 65.2521 210.747 63.0121 210.747 60.1961ZM247.385 73.3961C245.049 73.3961 242.921 73.0121 241.001 72.2441C239.081 71.4761 237.433 70.3561 236.057 68.8841C234.681 67.4121 233.609 65.6041 232.841 63.4601C232.105 61.2841 231.737 58.8041 231.737 56.0201C231.737 53.2361 232.153 50.7721 232.985 48.6281C233.849 46.4521 235.001 44.6281 236.441 43.1561C237.881 41.6841 239.561 40.5641 241.481 39.7961C243.401 39.0281 245.449 38.6441 247.625 38.6441C249.001 38.6441 250.233 38.7401 251.321 38.9321C252.441 39.1241 253.401 39.3481 254.201 39.6041C255.033 39.8601 255.705 40.1161 256.217 40.3721C256.729 40.6281 257.081 40.8201 257.273 40.9481L255.929 44.7881C255.641 44.5961 255.225 44.3881 254.681 44.1641C254.137 43.9401 253.513 43.7161 252.809 43.4921C252.137 43.2681 251.385 43.0921 250.553 42.9641C249.753 42.8041 248.937 42.7241 248.105 42.7241C246.345 42.7241 244.761 43.0281 243.353 43.6361C241.945 44.2441 240.745 45.1241 239.753 46.2761C238.761 47.4281 237.993 48.8361 237.449 50.5001C236.937 52.1321 236.681 53.9721 236.681 56.0201C236.681 58.0041 236.905 59.8121 237.353 61.4441C237.833 63.0761 238.537 64.4841 239.465 65.6681C240.393 66.8201 241.545 67.7161 242.921 68.3561C244.329 68.9961 245.961 69.3161 247.817 69.3161C249.961 69.3161 251.737 69.0921 253.145 68.6441C254.553 68.1961 255.609 67.7961 256.313 67.4441L257.513 71.2841C257.289 71.4441 256.889 71.6521 256.313 71.9081C255.737 72.1321 255.017 72.3561 254.153 72.5801C253.289 72.8041 252.281 72.9961 251.129 73.1561C249.977 73.3161 248.729 73.3961 247.385 73.3961ZM283.888 60.1961C283.888 62.1801 283.6 63.9721 283.024 65.5721C282.448 67.1721 281.632 68.5481 280.576 69.7001C279.552 70.8521 278.32 71.7481 276.88 72.3881C275.44 72.9961 273.872 73.3001 272.176 73.3001C270.48 73.3001 268.912 72.9961 267.472 72.3881C266.032 71.7481 264.784 70.8521 263.728 69.7001C262.704 68.5481 261.904 67.1721 261.328 65.5721C260.752 63.9721 260.464 62.1801 260.464 60.1961C260.464 58.2441 260.752 56.4681 261.328 54.8681C261.904 53.2361 262.704 51.8441 263.728 50.6921C264.784 49.5401 266.032 48.6601 267.472 48.0521C268.912 47.4121 270.48 47.0921 272.176 47.0921C273.872 47.0921 275.44 47.4121 276.88 48.0521C278.32 48.6601 279.552 49.5401 280.576 50.6921C281.632 51.8441 282.448 53.2361 283.024 54.8681C283.6 56.4681 283.888 58.2441 283.888 60.1961ZM279.232 60.1961C279.232 57.3801 278.592 55.1561 277.312 53.5241C276.064 51.8601 274.352 51.0281 272.176 51.0281C270 51.0281 268.272 51.8601 266.992 53.5241C265.744 55.1561 265.12 57.3801 265.12 60.1961C265.12 63.0121 265.744 65.2521 266.992 66.9161C268.272 68.5481 270 69.3641 272.176 69.3641C274.352 69.3641 276.064 68.5481 277.312 66.9161C278.592 65.2521 279.232 63.0121 279.232 60.1961ZM290.168 48.4361C291.192 48.1801 292.552 47.9081 294.248 47.6201C295.944 47.3321 297.896 47.1881 300.104 47.1881C302.088 47.1881 303.736 47.4761 305.048 48.0521C306.36 48.5961 307.4 49.3801 308.168 50.4041C308.968 51.3961 309.528 52.5961 309.848 54.0041C310.168 55.4121 310.328 56.9641 310.328 58.6601V72.6761H305.864V59.6201C305.864 58.0841 305.752 56.7721 305.528 55.6841C305.336 54.5961 305 53.7161 304.52 53.0441C304.04 52.3721 303.4 51.8921 302.6 51.6041C301.8 51.2841 300.808 51.1241 299.624 51.1241C299.144 51.1241 298.648 51.1401 298.136 51.1721C297.624 51.2041 297.128 51.2521 296.648 51.3161C296.2 51.3481 295.784 51.3961 295.4 51.4601C295.048 51.5241 294.792 51.5721 294.632 51.6041V72.6761H290.168V48.4361ZM323.539 69.4601C325.363 69.4601 326.707 69.2201 327.571 68.7401C328.467 68.2601 328.915 67.4921 328.915 66.4361C328.915 65.3481 328.483 64.4841 327.619 63.8441C326.755 63.2041 325.331 62.4841 323.347 61.6841C322.387 61.3001 321.459 60.9161 320.563 60.5321C319.699 60.1161 318.947 59.6361 318.307 59.0921C317.667 58.5481 317.155 57.8921 316.771 57.1241C316.387 56.3561 316.195 55.4121 316.195 54.2921C316.195 52.0841 317.011 50.3401 318.643 49.0601C320.275 47.7481 322.499 47.0921 325.315 47.0921C326.019 47.0921 326.723 47.1401 327.427 47.2361C328.131 47.3001 328.787 47.3961 329.395 47.5241C330.003 47.6201 330.531 47.7321 330.979 47.8601C331.459 47.9881 331.827 48.1001 332.083 48.1961L331.267 52.0361C330.787 51.7801 330.035 51.5241 329.011 51.2681C327.987 50.9801 326.755 50.8361 325.315 50.8361C324.067 50.8361 322.979 51.0921 322.051 51.6041C321.123 52.0841 320.659 52.8521 320.659 53.9081C320.659 54.4521 320.755 54.9321 320.947 55.3481C321.171 55.7641 321.491 56.1481 321.907 56.5001C322.355 56.8201 322.899 57.1241 323.539 57.4121C324.179 57.7001 324.947 58.0041 325.843 58.3241C327.027 58.7721 328.083 59.2201 329.011 59.6681C329.939 60.0841 330.723 60.5801 331.363 61.1561C332.035 61.7321 332.547 62.4361 332.899 63.2681C333.251 64.0681 333.427 65.0601 333.427 66.2441C333.427 68.5481 332.563 70.2921 330.835 71.4761C329.139 72.6601 326.707 73.2521 323.539 73.2521C321.331 73.2521 319.603 73.0601 318.355 72.6761C317.107 72.3241 316.259 72.0521 315.811 71.8601L316.627 68.0201C317.139 68.2121 317.955 68.5001 319.075 68.8841C320.195 69.2681 321.683 69.4601 323.539 69.4601ZM359.025 71.9561C358.001 72.2121 356.641 72.4841 354.945 72.7721C353.281 73.0601 351.345 73.2041 349.137 73.2041C347.217 73.2041 345.601 72.9321 344.289 72.3881C342.977 71.8121 341.921 71.0121 341.121 69.9881C340.321 68.9641 339.745 67.7641 339.393 66.3881C339.041 64.9801 338.865 63.4281 338.865 61.7321V47.7161H343.329V60.7721C343.329 63.8121 343.809 65.9881 344.769 67.3001C345.729 68.6121 347.345 69.2681 349.617 69.2681C350.097 69.2681 350.593 69.2521 351.105 69.2201C351.617 69.1881 352.097 69.1561 352.545 69.1241C352.993 69.0601 353.393 69.0121 353.745 68.9801C354.129 68.9161 354.401 68.8521 354.561 68.7881V47.7161H359.025V71.9561ZM374.203 73.1561C371.451 73.0921 369.499 72.5001 368.347 71.3801C367.195 70.2601 366.619 68.5161 366.619 66.1481V36.1961L371.083 35.4281V65.4281C371.083 66.1641 371.147 66.7721 371.275 67.2521C371.403 67.7321 371.611 68.1161 371.899 68.4041C372.187 68.6921 372.571 68.9161 373.051 69.0761C373.531 69.2041 374.123 69.3161 374.827 69.4121L374.203 73.1561ZM384.016 47.7161H393.472V51.4601H384.016V62.9801C384.016 64.2281 384.112 65.2681 384.304 66.1001C384.496 66.9001 384.784 67.5401 385.168 68.0201C385.552 68.4681 386.032 68.7881 386.608 68.9801C387.184 69.1721 387.856 69.2681 388.624 69.2681C389.968 69.2681 391.04 69.1241 391.84 68.8361C392.672 68.5161 393.248 68.2921 393.568 68.1641L394.432 71.8601C393.984 72.0841 393.2 72.3561 392.08 72.6761C390.96 73.0281 389.68 73.2041 388.24 73.2041C386.544 73.2041 385.136 72.9961 384.016 72.5801C382.928 72.1321 382.048 71.4761 381.376 70.6121C380.704 69.7481 380.224 68.6921 379.936 67.4441C379.68 66.1641 379.552 64.6921 379.552 63.0281V40.7561L384.016 39.9881V47.7161ZM403.617 72.6761H399.153V47.7161H403.617V72.6761ZM401.361 43.2041C400.561 43.2041 399.873 42.9481 399.297 42.4361C398.753 41.8921 398.48 41.1721 398.48 40.2761C398.48 39.3801 398.753 38.6761 399.297 38.1641C399.873 37.6201 400.561 37.3481 401.361 37.3481C402.161 37.3481 402.833 37.6201 403.377 38.1641C403.953 38.6761 404.241 39.3801 404.241 40.2761C404.241 41.1721 403.953 41.8921 403.377 42.4361C402.833 42.9481 402.161 43.2041 401.361 43.2041ZM411.293 48.4361C412.317 48.1801 413.677 47.9081 415.373 47.6201C417.069 47.3321 419.021 47.1881 421.229 47.1881C423.213 47.1881 424.861 47.4761 426.173 48.0521C427.485 48.5961 428.525 49.3801 429.293 50.4041C430.093 51.3961 430.653 52.5961 430.973 54.0041C431.293 55.4121 431.453 56.9641 431.453 58.6601V72.6761H426.989V59.6201C426.989 58.0841 426.877 56.7721 426.653 55.6841C426.461 54.5961 426.125 53.7161 425.645 53.0441C425.165 52.3721 424.525 51.8921 423.725 51.6041C422.925 51.2841 421.933 51.1241 420.749 51.1241C420.269 51.1241 419.773 51.1401 419.261 51.1721C418.749 51.2041 418.253 51.2521 417.773 51.3161C417.325 51.3481 416.909 51.3961 416.525 51.4601C416.173 51.5241 415.917 51.5721 415.757 51.6041V72.6761H411.293V48.4361ZM454.504 70.1801C454.12 70.4361 453.368 70.7721 452.248 71.1881C451.16 71.5721 449.88 71.7641 448.408 71.7641C446.904 71.7641 445.48 71.5241 444.136 71.0441C442.824 70.5641 441.672 69.8281 440.68 68.8361C439.688 67.8121 438.904 66.5481 438.328 65.0441C437.752 63.5401 437.464 61.7481 437.464 59.6681C437.464 57.8441 437.736 56.1801 438.28 54.6761C438.824 53.1401 439.608 51.8281 440.632 50.7401C441.688 49.6201 442.968 48.7561 444.472 48.1481C445.976 47.5081 447.672 47.1881 449.56 47.1881C451.64 47.1881 453.448 47.3481 454.984 47.6681C456.552 47.9561 457.864 48.2281 458.92 48.4841V70.7561C458.92 74.5961 457.928 77.3801 455.944 79.1081C453.96 80.8361 450.952 81.7001 446.92 81.7001C445.352 81.7001 443.864 81.5721 442.456 81.3161C441.08 81.0601 439.88 80.7561 438.856 80.4041L439.672 76.5161C440.568 76.8681 441.656 77.1721 442.936 77.4281C444.248 77.7161 445.608 77.8601 447.016 77.8601C449.672 77.8601 451.576 77.3321 452.728 76.2761C453.912 75.2201 454.504 73.5401 454.504 71.2361V70.1801ZM454.456 51.6521C454.008 51.5241 453.4 51.4121 452.632 51.3161C451.896 51.1881 450.888 51.1241 449.608 51.1241C447.208 51.1241 445.352 51.9081 444.04 53.4761C442.76 55.0441 442.12 57.1241 442.12 59.7161C442.12 61.1561 442.296 62.3881 442.648 63.4121C443.032 64.4361 443.528 65.2841 444.136 65.9561C444.776 66.6281 445.496 67.1241 446.296 67.4441C447.128 67.7641 447.976 67.9241 448.84 67.9241C450.024 67.9241 451.112 67.7641 452.104 67.4441C453.096 67.0921 453.88 66.6921 454.456 66.2441V51.6521Z" fill="black"/>
</svg>
